<svg id="レイヤー_1" data-name="レイヤー 1" xmlns="http://www.w3.org/2000/svg" viewBox="0 0 131.8 21"><path d="M545.4,324.2v-3.8h1.5v3.8a2.06,2.06,0,0,0,2.3,2.3,2,2,0,0,0,2.3-2.3v-3.8H553v3.8c0,2.1-1.2,3.5-3.7,3.5C546.5,327.7,545.4,326.2,545.4,324.2Z" transform="translate(-545.4 -320.2)"/><path d="M555.4,327.6h-1.5v-7.2h4.5c1.7,0,2.8.8,2.8,2.3a2.14,2.14,0,0,1-1.7,2.1l1.8,2.8h-1.7l-1.7-2.7h-2.6v2.7Zm3-3.9c.8,0,1.3-.3,1.3-1s-.5-1-1.3-1h-3v2Z" transform="translate(-545.4 -320.2)"/><path d="M562.3,320.3h4.8c1.6,0,2.4.7,2.4,1.9a1.66,1.66,0,0,1-1.1,1.5,1.75,1.75,0,0,1,1.3,1.8c0,1.3-1,2-2.5,2h-4.9v-7.2Zm4.6,2.9c.8,0,1.2-.3,1.2-.8s-.4-.8-1.2-.8h-3.2v1.7h3.2Zm-3.2,3.1H567q1.2,0,1.2-.9c0-.5-.4-.9-1.2-.9h-3.3Z" transform="translate(-545.4 -320.2)"/><path d="M575.2,320.3l3.6,7.2h-1.6l-.8-1.7h-4.1l-.8,1.7h-1.6l3.6-7.2Zm-2.3,4.4h2.8l-1.4-2.8Z" transform="translate(-545.4 -320.2)"/><path d="M587,327.6h-1.3l-4.7-5.3v5.3h-1.4v-7.2h1.5l4.5,5.1v-5.1H587v7.2Z" transform="translate(-545.4 -320.2)"/><path d="M598.3,320.3v1.3h-5.5v1.6h4.9v1.3h-4.9v1.8h5.5v1.3h-6.9v-7.2l6.9-.1Z" transform="translate(-545.4 -320.2)"/><path d="M603.3,322.8l2.3-2.5h1.8l-3.2,3.4,3.4,3.8h-1.8l-2.5-2.8-2.6,2.8h-1.8l3.4-3.8-3.2-3.4h1.8Z" transform="translate(-545.4 -320.2)"/><path d="M609.9,327.6h-1.5v-7.2h4.5c1.7,0,2.8.8,2.8,2.3s-1.1,2.3-2.8,2.3h-3Zm3-3.9c.8,0,1.3-.4,1.3-1s-.5-1-1.3-1H610v2Z" transform="translate(-545.4 -320.2)"/><path d="M616.6,320.3h1.5v5.9h5.1v1.3h-6.5l-.1-7.2Z" transform="translate(-545.4 -320.2)"/><path d="M631.9,323.9c0,2.2-1.8,3.7-4.3,3.7s-4.3-1.6-4.3-3.7,1.8-3.7,4.3-3.7S631.9,321.8,631.9,323.9Zm-6.9,0c0,1.4,1.1,2.4,2.8,2.4a2.54,2.54,0,0,0,2.8-2.4c0-1.4-1.1-2.4-2.8-2.4S625,322.5,625,323.9Z" transform="translate(-545.4 -320.2)"/><path d="M634.5,327.6H633v-7.2h4.5c1.7,0,2.8.8,2.8,2.3a2.14,2.14,0,0,1-1.7,2.1l1.8,2.8h-1.7l-1.7-2.7h-2.6v2.7Zm3-3.9c.8,0,1.3-.3,1.3-1s-.5-1-1.3-1h-3v2Z" transform="translate(-545.4 -320.2)"/><path d="M646.2,320.3l3.6,7.2h-1.6l-.8-1.7h-4.1l-.8,1.7h-1.6l3.6-7.2Zm-2.2,4.4h2.8l-1.4-2.8Z" transform="translate(-545.4 -320.2)"/><path d="M653.6,321.7v5.9h-1.5v-5.9h-3.2v-1.3h7.8v1.3Z" transform="translate(-545.4 -320.2)"/><path d="M659.1,327.6h-1.5v-7.2h1.5Z" transform="translate(-545.4 -320.2)"/><path d="M668.7,323.9c0,2.2-1.8,3.7-4.3,3.7s-4.3-1.6-4.3-3.7,1.8-3.7,4.3-3.7S668.7,321.8,668.7,323.9Zm-7,0c0,1.4,1.1,2.4,2.8,2.4s2.8-1,2.8-2.4-1.1-2.4-2.8-2.4S661.7,322.5,661.7,323.9Z" transform="translate(-545.4 -320.2)"/><path d="M677.2,327.6h-1.3l-4.7-5.3v5.3h-1.4v-7.2h1.5l4.5,5.1v-5.1h1.4v7.2Z" transform="translate(-545.4 -320.2)"/><path d="M545.8,338.8a2.12,2.12,0,0,0,2,1c.9,0,1.6-.3,1.6-.9s-.4-.7-1.7-.8c-1.1-.1-1.9-.3-1.9-1s.8-1.2,1.8-1.2a2.39,2.39,0,0,1,2.1,1l-.3.3a2.13,2.13,0,0,0-1.8-.9c-.8,0-1.4.3-1.4.9s.5.6,1.7.7c1.4.2,2,.3,2,1.1s-.9,1.3-2,1.3a2.78,2.78,0,0,1-2.4-1.1Z" transform="translate(-545.4 -320.2)"/><path d="M551.1,341.2h-.3V337h.3v.7a1.66,1.66,0,1,1,1.4,2.5,1.75,1.75,0,0,1-1.4-.7Zm-.1-2.6a1.23,1.23,0,0,0,1.3,1.2,1.21,1.21,0,0,0,1.3-1.3,1.26,1.26,0,0,0-1.3-1.3,1.5,1.5,0,0,0-1.3,1.4Z" transform="translate(-545.4 -320.2)"/><path d="M556.8,337.4h-.3a1.16,1.16,0,0,0-1.2,1.2v1.5H555V337h.3v.7a1.35,1.35,0,0,1,1.2-.8c.2,0,.3,0,.3.1Z" transform="translate(-545.4 -320.2)"/><path d="M557.4,335.9h.4v.5h-.4Zm.4,4.2h-.3V337h.3Z" transform="translate(-545.4 -320.2)"/><path d="M558.8,337.1h.3v.6a1.67,1.67,0,0,1,1.3-.7,1.24,1.24,0,0,1,1.3,1.4v1.7h-.4v-1.7a.9.9,0,0,0-1-1,1.15,1.15,0,0,0-1.2,1.2v1.6h-.3v-3.1Z" transform="translate(-545.4 -320.2)"/><path d="M564.2,341.2a1.75,1.75,0,0,1-1.7-.9l.3-.2a1.34,1.34,0,0,0,1.3.8c.8,0,1.4-.4,1.4-1.1v-.3a1.6,1.6,0,1,1,0-1.8v-.6h.3v2.7C566,340.7,565.2,341.2,564.2,341.2Zm0-3.9a1.18,1.18,0,0,0-1.3,1.2,1.3,1.3,0,0,0,2.6,0h0C565.6,337.8,564.8,337.3,564.2,337.3Z" transform="translate(-545.4 -320.2)"/><path d="M568.2,338.8a2.12,2.12,0,0,0,2,1c.9,0,1.6-.3,1.6-.9s-.4-.7-1.7-.8c-1.1-.1-1.9-.3-1.9-1s.8-1.2,1.8-1.2a2.39,2.39,0,0,1,2.1,1l-.3.3a2.13,2.13,0,0,0-1.8-.9c-.9,0-1.4.3-1.4.9s.5.6,1.7.7c1.4.2,2,.3,2,1.1s-.9,1.3-2,1.3a2.78,2.78,0,0,1-2.4-1.1Z" transform="translate(-545.4 -320.2)"/><path d="M575.8,340.1h-.3v-.6a1.64,1.64,0,0,1-1.2.7,1.24,1.24,0,0,1-1.3-1.4v-1.7h.3v1.7a.9.9,0,0,0,1,1,1.08,1.08,0,0,0,1.1-1.2V337h.3v3.1Z" transform="translate(-545.4 -320.2)"/><path d="M576.9,337.1h.3v.6a1.36,1.36,0,0,1,1.1-.6,1.13,1.13,0,0,1,1.1.7,1.64,1.64,0,0,1,1.2-.7,1.16,1.16,0,0,1,1.3,1.3v1.8h-.3v-1.7a.9.9,0,0,0-1-1,.94.94,0,0,0-1,1v1.7h-.3v-1.7a.9.9,0,0,0-1-1,.94.94,0,0,0-1,1v1.7H577l-.1-3.1Z" transform="translate(-545.4 -320.2)"/><path d="M583,337.1h.3v.6a1.36,1.36,0,0,1,1.1-.6,1.13,1.13,0,0,1,1.1.7,1.64,1.64,0,0,1,1.2-.7,1.16,1.16,0,0,1,1.3,1.3v1.8h-.3v-1.7a.9.9,0,0,0-1-1,.94.94,0,0,0-1,1v1.7h-.3v-1.7a.9.9,0,0,0-1-1,.94.94,0,0,0-1,1v1.7h-.3l-.1-3.1Z" transform="translate(-545.4 -320.2)"/><path d="M591.9,339.1l.3.2a1.73,1.73,0,0,1-1.6,1,1.61,1.61,0,0,1-1.7-1.6,1.55,1.55,0,0,1,1.7-1.6,1.59,1.59,0,0,1,1.7,1.5v.2h-3a1.27,1.27,0,0,0,1.4,1.2A1.65,1.65,0,0,0,591.9,339.1Zm-2.6-.7h2.6a1.06,1.06,0,0,0-1.2-1A1.26,1.26,0,0,0,589.3,338.4Z" transform="translate(-545.4 -320.2)"/><path d="M595,337.4h-.3a1.16,1.16,0,0,0-1.2,1.2v1.5H593V337h.3v.7a1.35,1.35,0,0,1,1.2-.8c.2,0,.3,0,.3.1l.2.4Z" transform="translate(-545.4 -320.2)"/><path d="M598.6,338.7c1-.6,1.7-.9,1.7-1.6s-.6-1-1.4-1a1.58,1.58,0,0,0-1.7,1.2l-.3-.1a2.1,2.1,0,0,1,2.1-1.5,1.62,1.62,0,0,1,1.8,1.4c0,.8-.6,1.1-1.7,1.8l-1.4.8H601v.3h-4v-.3Z" transform="translate(-545.4 -320.2)"/><path d="M605.9,338a2.41,2.41,0,1,1-2.4-2.2A2.21,2.21,0,0,1,605.9,338Zm-4.3,0a1.82,1.82,0,0,0,1.9,1.8,1.76,1.76,0,0,0,1.9-1.8,1.9,1.9,0,0,0-3.8,0Z" transform="translate(-545.4 -320.2)"/><path d="M608.2,338.7c1-.6,1.7-.9,1.7-1.6s-.6-1-1.4-1a1.58,1.58,0,0,0-1.7,1.2l-.3-.1a2.1,2.1,0,0,1,2.1-1.5,1.62,1.62,0,0,1,1.8,1.4c0,.8-.6,1.1-1.7,1.8l-1.4.8h3.3v.3h-4v-.3Z" transform="translate(-545.4 -320.2)"/><path d="M612.8,338.7c1-.6,1.7-.9,1.7-1.6s-.6-1-1.4-1a1.58,1.58,0,0,0-1.7,1.2l-.3-.1a2.1,2.1,0,0,1,2.1-1.5,1.62,1.62,0,0,1,1.8,1.4c0,.8-.6,1.1-1.7,1.8l-1.4.8h3.3v.3h-4v-.3Z" transform="translate(-545.4 -320.2)"/></svg>