<svg id="レイヤー_1" data-name="レイヤー 1" xmlns="http://www.w3.org/2000/svg" viewBox="0 0 138 17.6"><path d="M545.1,271.2h11.3c3.7,0,5.8,1.6,5.8,4.6a3.84,3.84,0,0,1-2.5,3.7,4.23,4.23,0,0,1,3,4.1c0,3-2.3,4.8-5.9,4.8H545.1V271.2Zm10.9,6.9c1.8,0,2.8-.7,2.8-2s-1.1-2-2.8-2h-7.5v4.1H556Zm-7.6,7.3h8.1c1.7,0,2.8-.9,2.8-2.2s-1-2.2-2.8-2.2h-8.1Z" transform="translate(-545.1 -270.9)"/><path d="M564.9,280.2v-9.1h3.5V280c0,3.2,1.4,5.5,5.3,5.5s5.3-2.2,5.3-5.5v-8.9h3.5v9.1c0,5-2.8,8.3-8.8,8.3S564.9,285.2,564.9,280.2Z" transform="translate(-545.1 -270.9)"/><path d="M600.6,271.2h4.2l-8.6,9.9v7.3h-3.5V281l-8.6-9.9h4.3l6.1,7Z" transform="translate(-545.1 -270.9)"/><path d="M631.3,288.3h-3.1L617,275.6v12.7h-3.4V271.1h3.6l10.7,12.1V271.1h3.4Z" transform="translate(-545.1 -270.9)"/><path d="M654.3,279.7c0,5.1-4.3,8.8-10.1,8.8s-10.1-3.8-10.1-8.8,4.3-8.8,10.1-8.8S654.3,274.6,654.3,279.7Zm-16.7,0c0,3.5,2.7,5.8,6.5,5.8s6.5-2.3,6.5-5.8-2.7-5.8-6.5-5.8S637.6,276.3,637.6,279.7Z" transform="translate(-545.1 -270.9)"/><path d="M670.7,271.2l4.3,13.3,4.5-13.3h3.6l-6,17.2H673l-4.2-13.1-4.2,13.1h-4.1l-6-17.2h3.7l4.5,13.3,4.3-13.3Z" transform="translate(-545.1 -270.9)"/></svg>