<svg id="レイヤー_1" data-name="レイヤー 1" xmlns="http://www.w3.org/2000/svg" viewBox="0 0 168.5 22.1"><path d="M554.8,245.9c4.5,0,7.8,2,9.1,5.4l-3,1.5a6.12,6.12,0,0,0-6.1-3.9c-3.8,0-6.6,2.3-6.6,5.8s2.8,5.8,6.6,5.8a6.08,6.08,0,0,0,6.1-3.9l3,1.5c-1.3,3.4-4.6,5.4-9.1,5.4-5.8,0-10.2-3.8-10.2-8.9S548.9,245.9,554.8,245.9Z" transform="translate(-544.6 -245.9)"/><path d="M580.1,257.1c0,4-3.2,6.6-7.3,6.6s-7.4-2.6-7.4-6.6,3.3-6.6,7.4-6.6S580.1,253.2,580.1,257.1Zm-3.3,0c0-2.4-1.8-3.7-4.1-3.7s-4.1,1.4-4.1,3.7,1.8,3.8,4.1,3.8S576.8,259.5,576.8,257.1Z" transform="translate(-544.6 -245.9)"/><path d="M582,250.8h3.4v1.6a5.65,5.65,0,0,1,4.4-1.8,4.81,4.81,0,0,1,4.4,2.3,6.66,6.66,0,0,1,5.1-2.3c3.7,0,5.7,2.3,5.7,5.9v6.9h-3.4v-6.3c0-2.1-.9-3.6-3.1-3.6s-3.3,1.4-3.3,3.6v6.2h-3.4V257c0-2.1-.9-3.6-3.1-3.6s-3.4,1.4-3.4,3.6v6.2H582Z" transform="translate(-544.6 -245.9)"/><path d="M607.6,246.2H611v3.1h-3.4Zm3.4,17.2h-3.4V250.8H611Z" transform="translate(-544.6 -245.9)"/><path d="M613.6,250.8H617v1.6a6.13,6.13,0,0,1,4.6-1.8c3.4,0,5.5,2.3,5.5,5.8v7h-3.4v-6.2c0-2.2-1.1-3.6-3.2-3.6-2.3,0-3.5,1.4-3.5,3.6v6.2h-3.4V250.8Z" transform="translate(-544.6 -245.9)"/><path d="M636,268c-3.4,0-6.1-1.2-7.1-3.3l2.7-1.6c.6,1.4,2.3,2.3,4.4,2.3,2.4,0,4.4-1.2,4.4-3.4v-.5a6.42,6.42,0,0,1-4.7,1.8c-4.3,0-6.9-2.9-6.9-6.4s2.5-6.3,6.9-6.3a6.41,6.41,0,0,1,4.7,1.7v-1.5h3.4v10.8C643.8,265.6,640.5,268,636,268Zm.3-14.7c-2.3,0-4.2,1.3-4.2,3.6s1.9,3.6,4.2,3.6,4.3-1.4,4.3-3.6v-.1C640.6,254.6,638.6,253.3,636.3,253.3Z" transform="translate(-544.6 -245.9)"/><path d="M653.6,258.8a7.24,7.24,0,0,0,5.5,2.2c1.8,0,3.1-.4,3.1-1.3s-1.2-1-4.1-1.3c-3.2-.4-5.7-1-5.7-3.6s2.4-4.2,6.2-4.2c3,0,5.4,1,6.5,2.4l-1.9,2a6.19,6.19,0,0,0-4.8-1.8c-1.9,0-2.8.5-2.8,1.2s.9.9,3.6,1.2c3.3.4,6.2.9,6.2,3.8s-3,4.3-6.6,4.3c-3,0-5.8-1-7.3-2.6Z" transform="translate(-544.6 -245.9)"/><path d="M681.7,257.1c0,4-3.2,6.6-7.3,6.6s-7.4-2.6-7.4-6.6,3.3-6.6,7.4-6.6S681.7,253.2,681.7,257.1Zm-3.2,0c0-2.4-1.8-3.7-4.1-3.7s-4.1,1.4-4.1,3.7,1.8,3.8,4.1,3.8A3.81,3.81,0,0,0,678.5,257.1Z" transform="translate(-544.6 -245.9)"/><path d="M697.6,257.1c0,4-3.2,6.6-7.3,6.6s-7.4-2.6-7.4-6.6,3.3-6.6,7.4-6.6S697.6,253.2,697.6,257.1Zm-3.2,0c0-2.4-1.8-3.7-4.1-3.7s-4.1,1.4-4.1,3.7,1.8,3.8,4.1,3.8A3.81,3.81,0,0,0,694.4,257.1Z" transform="translate(-544.6 -245.9)"/><path d="M699.6,250.8H703v1.6a6.13,6.13,0,0,1,4.6-1.8c3.4,0,5.5,2.3,5.5,5.8v7h-3.4v-6.2c0-2.2-1.1-3.6-3.2-3.6-2.3,0-3.5,1.4-3.5,3.6v6.2h-3.4V250.8Z" transform="translate(-544.6 -245.9)"/></svg>