<svg id="レイヤー_1" data-name="レイヤー 1" xmlns="http://www.w3.org/2000/svg" viewBox="0 0 143.7 143.7"><defs><style>.cls-1{fill:#080808;}.cls-2{fill:#fff;}</style></defs><polygon class="cls-1" points="0 71.9 71.9 143.7 143.7 71.9 71.9 0 0 71.9"/><path class="cls-2" d="M336.4,362.9l-67.6-67.6,67.6-67.6L404,295.3Zm-65.1-67.6,65.1,65.1,65.1-65.1-65.1-65.1Z" transform="translate(-264.5 -223.4)"/><path class="cls-2" d="M315.8,263.3h1.9v.3c0,1.2,0,1.8-.5,2.3a2.21,2.21,0,0,1-2.8,0c-.5-.5-.5-1.1-.5-2.3s0-1.8.5-2.3a2.21,2.21,0,0,1,2.8,0,1.23,1.23,0,0,1,.4.8h-.9c0-.1-.1-.2-.2-.3a1.22,1.22,0,0,0-1.6,0c-.3.3-.3.6-.3,1.8s0,1.5.3,1.8a1.22,1.22,0,0,0,1.6,0c.2-.2.3-.5.3-1.3h-1v-.8Z" transform="translate(-264.5 -223.4)"/><path class="cls-2" d="M318.6,260.9h.9v2.7c0,1.2,0,1.5.3,1.8a1.22,1.22,0,0,0,1.6,0c.3-.3.3-.6.3-1.8v-2.7h.9v2.7c0,1.2,0,1.8-.5,2.3a2.21,2.21,0,0,1-2.8,0c-.5-.5-.5-1.1-.5-2.3v-2.7Z" transform="translate(-264.5 -223.4)"/><path class="cls-2" d="M326.2,264.8h-1.8l-.5,1.5H323l1.9-5.4h.9l1.9,5.4h-.9Zm-1.6-.8h1.3l-.5-1.7a4.33,4.33,0,0,1-.1-.5h0a4.33,4.33,0,0,0-.1.5Z" transform="translate(-264.5 -223.4)"/><path class="cls-2" d="M330.1,264.2h-.9v2.1h-.9v-5.4h1.5a3.06,3.06,0,0,1,1.7.4,1.43,1.43,0,0,1,.5,1.3,1.9,1.9,0,0,1-.5,1.3l-.6.3,1.3,2.2h-1Zm-.9-2.6v1.9h.8a1.08,1.08,0,0,0,.9-.3,1,1,0,0,0,0-1.4,1.22,1.22,0,0,0-.9-.3h-.8Z" transform="translate(-264.5 -223.4)"/><path class="cls-2" d="M335.8,264.8H334l-.5,1.5h-.9l1.9-5.4h.9l1.9,5.4h-.9Zm-1.6-.8h1.3l-.5-1.7a4.33,4.33,0,0,1-.1-.5h0a4.33,4.33,0,0,0-.1.5Z" transform="translate(-264.5 -223.4)"/><path class="cls-2" d="M338.9,260.9l2,3.5a3.33,3.33,0,0,0,.3.6h0v-4.1h.8v5.4h-1l-2-3.4a3.29,3.29,0,0,1-.3-.6h0v4H338v-5.4Z" transform="translate(-264.5 -223.4)"/><path class="cls-2" d="M342.7,260.9h3.7v.8H345v4.7h-.9v-4.7h-1.4v-.8Z" transform="translate(-264.5 -223.4)"/><path class="cls-2" d="M347.1,260.9h3v.8h-2.2v1.5h2v.7h-2v1.6h2.2v.8H347v-5.4Z" transform="translate(-264.5 -223.4)"/><path class="cls-2" d="M351.1,260.9h3v.8H352v1.5h2v.7h-2v1.6h2.2v.8h-3.1Z" transform="translate(-264.5 -223.4)"/><path class="cls-2" d="M355.2,260.9h1.2a2.57,2.57,0,0,1,2.2.7,3.22,3.22,0,0,1,.7,2,3,3,0,0,1-.7,2,2.8,2.8,0,0,1-2.2.7h-1.2Zm.8.7v3.9h.4c.8,0,1.2-.1,1.5-.5a2.25,2.25,0,0,0,.5-1.5,2.46,2.46,0,0,0-.5-1.5,1.84,1.84,0,0,0-1.5-.5C356.3,261.6,356.2,261.6,356,261.6Z" transform="translate(-264.5 -223.4)"/><path class="cls-2" d="M307.7,271.1h3.7v.8H310v4.7h-.9v-4.7h-1.4Z" transform="translate(-264.5 -223.4)"/><path class="cls-2" d="M312.4,271.5a2.21,2.21,0,0,1,2.8,0c.5.5.5,1.1.5,2.3s0,1.8-.5,2.3a2.21,2.21,0,0,1-2.8,0c-.5-.5-.5-1.1-.5-2.3S311.9,272,312.4,271.5Zm.6.5c-.3.3-.3.6-.3,1.8s0,1.5.3,1.8a1.22,1.22,0,0,0,1.6,0c.3-.3.3-.6.3-1.8s0-1.5-.3-1.8a1.22,1.22,0,0,0-1.6,0Z" transform="translate(-264.5 -223.4)"/><path class="cls-2" d="M319.6,274.2l-.4.5v1.8h-.9v-5.4h.9v2.5h0c.1-.1.1-.2.2-.3l1.8-2.2h1.1l-2,2.5,2.3,2.9h-1.1Z" transform="translate(-264.5 -223.4)"/><path class="cls-2" d="M323.2,271.1h3v.8H324v1.5h2v.7h-2v1.6h2.2v.8h-3.1v-5.4Z" transform="translate(-264.5 -223.4)"/><path class="cls-2" d="M327.3,271.1h3v.8h-2.2v1.5h2v.7h-2v1.6h2.2v.8h-3.1v-5.4Z" transform="translate(-264.5 -223.4)"/><path class="cls-2" d="M331.3,271.1h1.4a2.86,2.86,0,0,1,1.7.4,1.71,1.71,0,0,1,0,2.6,2.41,2.41,0,0,1-1.7.4h-.6v2h-.9v-5.4Zm.9.7v2h.8a1.08,1.08,0,0,0,.9-.3.84.84,0,0,0,.2-.7,1.17,1.17,0,0,0-.2-.7,1.22,1.22,0,0,0-.9-.3Z" transform="translate(-264.5 -223.4)"/><path class="cls-2" d="M338.3,274.5l-1.7-3.4h1l1,2.1c0,.1.2.4.2.5h0a1.06,1.06,0,0,1,.2-.5l1-2.1h1l-1.7,3.4v2.1h-.9v-2.1Z" transform="translate(-264.5 -223.4)"/><path class="cls-2" d="M341.6,271.5a2.21,2.21,0,0,1,2.8,0c.5.5.5,1.1.5,2.3s0,1.8-.5,2.3a2.21,2.21,0,0,1-2.8,0c-.5-.5-.5-1.1-.5-2.3S341.1,272,341.6,271.5Zm.6.5c-.3.3-.3.6-.3,1.8s0,1.5.3,1.8a1.22,1.22,0,0,0,1.6,0c.3-.3.3-.6.3-1.8s0-1.5-.3-1.8a1.22,1.22,0,0,0-1.6,0Z" transform="translate(-264.5 -223.4)"/><path class="cls-2" d="M345.9,271.1h.9v2.7c0,1.2,0,1.5.3,1.8a1.22,1.22,0,0,0,1.6,0c.3-.3.3-.6.3-1.8v-2.7h.9v2.7c0,1.2,0,1.8-.5,2.3a2.21,2.21,0,0,1-2.8,0c-.5-.5-.5-1.1-.5-2.3v-2.7Z" transform="translate(-264.5 -223.4)"/><path class="cls-2" d="M352.4,271.1h1.2a2.57,2.57,0,0,1,2.2.7,3.22,3.22,0,0,1,.7,2,3,3,0,0,1-.7,2,2.8,2.8,0,0,1-2.2.7h-1.2Zm.9.7v3.9h.4c.8,0,1.2-.1,1.5-.5a2.25,2.25,0,0,0,.5-1.5,2.46,2.46,0,0,0-.5-1.5,1.84,1.84,0,0,0-1.5-.5A.6.6,0,0,1,353.3,271.8Z" transform="translate(-264.5 -223.4)"/><path class="cls-2" d="M359.3,274.4h-.9v2.1h-.9v-5.4H359a3.06,3.06,0,0,1,1.7.4,1.43,1.43,0,0,1,.5,1.3,1.9,1.9,0,0,1-.5,1.3l-.6.3,1.3,2.2h-1Zm-.9-2.6v1.9h.8a1.08,1.08,0,0,0,.9-.3,1,1,0,0,0,0-1.4,1.22,1.22,0,0,0-.9-.3h-.8Z" transform="translate(-264.5 -223.4)"/><path class="cls-2" d="M363.2,274.5l-1.7-3.4h1l1,2.1c0,.1.2.4.2.5h0a1.06,1.06,0,0,1,.2-.5l1-2.1h1l-1.7,3.4v2.1h-.9v-2.1Z" transform="translate(-264.5 -223.4)"/><path class="cls-2" d="M358.3,305.7h.9a1.43,1.43,0,0,1,1.1.3,1.22,1.22,0,0,1,0,1.6,1.8,1.8,0,0,1-1.1.3h-.4v1.2h-.5v-3.4Zm.6.5v1.2h.5a1.07,1.07,0,0,0,.6-.2.6.6,0,0,0,.1-.4.9.9,0,0,0-.1-.5.85.85,0,0,0-.6-.2h-.5Z" transform="translate(-264.5 -223.4)"/><path class="cls-2" d="M362.7,307.8h-.5v1.3h-.5v-3.4h.9a1.43,1.43,0,0,1,1.1.3,1.22,1.22,0,0,1,0,1.6c-.1.1-.2.1-.3.2l.8,1.4h-.6l-.9-1.4Zm-.5-1.6v1.2h.5c.3,0,.4,0,.6-.2a.76.76,0,0,0,.2-.4c0-.2,0-.3-.2-.4a.85.85,0,0,0-.6-.2Z" transform="translate(-264.5 -223.4)"/><path class="cls-2" d="M365.3,306a1.5,1.5,0,0,1,1.8,0c.3.3.3.7.3,1.4s0,1.1-.3,1.4a1.5,1.5,0,0,1-1.8,0c-.3-.3-.3-.7-.3-1.4a1.5,1.5,0,0,1,.3-1.4Zm.4.3c-.2.2-.2.4-.2,1.1s0,.9.2,1.1a.73.73,0,0,0,1,0c.2-.2.2-.4.2-1.1s0-.9-.2-1.1a.72.72,0,0,0-1,0Z" transform="translate(-264.5 -223.4)"/><path class="cls-2" d="M368.4,305.7h.7a2.12,2.12,0,0,1,1.4.4,1.7,1.7,0,0,1,.4,1.3,1.9,1.9,0,0,1-.4,1.2c-.3.4-.8.4-1.4.4h-.7v-3.3Zm.6.5v2.4h.2a1.49,1.49,0,0,0,1-.3,1.5,1.5,0,0,0,0-1.8,1.33,1.33,0,0,0-1-.3Z" transform="translate(-264.5 -223.4)"/><path class="cls-2" d="M372,305.7h.5v1.7c0,.7,0,.9.2,1.1a.73.73,0,0,0,1,0c.2-.2.2-.4.2-1.1v-1.7h.5v1.7c0,.7,0,1.1-.3,1.4a1.5,1.5,0,0,1-1.8,0c-.3-.3-.3-.7-.3-1.4v-1.7Z" transform="translate(-264.5 -223.4)"/><path class="cls-2" d="M376.1,306.3c-.2.2-.2.4-.2,1.1s0,.9.2,1.1a.73.73,0,0,0,1,0,.37.37,0,0,0,.1-.3h.5a.6.6,0,0,1-.3.6,1.5,1.5,0,0,1-1.8,0c-.3-.3-.3-.7-.3-1.4s0-1.1.3-1.4a1.14,1.14,0,0,1,.8-.3,1.4,1.4,0,0,1,.9.3.86.86,0,0,1,.3.6h-.5c0-.1-.1-.2-.1-.3a.76.76,0,0,0-.5-.2c-.1,0-.2.1-.4.2Z" transform="translate(-264.5 -223.4)"/><polygon class="cls-2" points="113.9 82.3 116.2 82.3 116.2 82.8 115.3 82.8 115.3 85.7 114.8 85.7 114.8 82.8 113.9 82.8 113.9 82.3"/><path class="cls-2" d="M382.9,308.2c0-.7-1.5-.5-1.5-1.7,0-.6.4-.9,1-.9a.91.91,0,0,1,1,.8l-.5.1a.47.47,0,0,0-.5-.5c-.3,0-.5.1-.5.5,0,.7,1.5.6,1.5,1.6,0,.6-.4.9-1.1.9a1,1,0,0,1-1.1-.9l.5-.1c0,.3.2.5.6.5.4.2.6,0,.6-.3Z" transform="translate(-264.5 -223.4)"/><path class="cls-2" d="M300.8,293.5h-5.7v2.6h2.8c0,1.9-.2,2.6-.8,3.3a3.43,3.43,0,0,1-4.4,0c-.8-.8-.8-1.8-.8-4.9s.1-4.1.8-4.9a3.43,3.43,0,0,1,4.4,0,2.62,2.62,0,0,1,.5.9h2.9a5,5,0,0,0-1.4-2.9,6.63,6.63,0,0,0-8.4,0c-1.6,1.5-1.6,3.4-1.6,7s0,5.5,1.5,6.9a6.12,6.12,0,0,0,4.2,1.5,5.93,5.93,0,0,0,4.2-1.5c1.6-1.5,1.6-3.3,1.6-6.9a1.17,1.17,0,0,0,.2-1.1" transform="translate(-264.5 -223.4)"/><path class="cls-2" d="M310.9,299.4a3.43,3.43,0,0,1-4.4,0c-.8-.8-.8-1.8-.8-4.9s.1-4.1.8-4.9a3.42,3.42,0,0,1,4.4,0c.8.8.8,1.8.8,4.9s0,4.1-.8,4.9m2-11.8a6.63,6.63,0,0,0-8.4,0c-1.6,1.5-1.6,3.4-1.6,7s0,5.5,1.5,6.9a6.12,6.12,0,0,0,4.2,1.5,5.93,5.93,0,0,0,4.2-1.5c1.6-1.5,1.6-3.3,1.6-6.9s0-5.5-1.5-7" transform="translate(-264.5 -223.4)"/><polygon class="cls-2" points="50 63 53.4 67.2 56.4 67.2 53 63 50 63"/><path class="cls-2" d="M321.3,294.1h-4.2l7.2,8.6H328l-5.2-6.2a4.8,4.8,0,0,0,4.8-4.8c0-2.8-1.5-5.2-5.5-5.2h-2.8l2.1,2.6c3.1-.1,3.3,1.4,3.3,2.6.1,1-.4,2.4-3.4,2.4Z" transform="translate(-264.5 -223.4)"/><polygon class="cls-2" points="65.7 63 65.7 79.3 75.8 79.3 75.8 76.6 68.6 76.6 68.6 72.4 75 72.4 75 69.7 68.6 69.7 68.6 65.7 75.8 65.7 75.8 63 65.7 63"/><polygon class="cls-2" points="77.5 72.4 81.2 72.4 81.2 69.7 79.4 69.7 77.5 69.7 77.5 72.4"/><polygon class="cls-2" points="80.8 63 80.8 65.7 84.7 65.7 84.7 79.3 87.7 79.3 87.7 65.7 91.7 65.7 91.7 63 80.8 63"/><polygon class="cls-2" points="93.8 63 93.8 79.3 103.2 79.3 104.7 76.6 96.7 76.6 96.7 72.4 102.7 72.4 102.7 69.7 96.7 69.7 96.7 65.7 104.7 65.7 103.2 63 93.8 63"/><path class="cls-2" d="M379.9,302.7l-2.4-4.6a15.28,15.28,0,0,1-.8-1.6h-.1a11.39,11.39,0,0,0-.8,1.5l-2.4,4.6H370l4.5-8.2-4.4-8h3.3l2.4,4.5a15.28,15.28,0,0,1,.8,1.6h.1a15.28,15.28,0,0,1,.8-1.6l2.4-4.5h3.4l-4.4,8,4.5,8.2h-3.5Z" transform="translate(-264.5 -223.4)"/><path class="cls-2" d="M339.1,330.8c0-.1.2-.2.2-.2h2.1l.3-1.2h-2.3l.4-1.5c0-.1.2-.2.2-.2h2.1l.3-1.2h-2.7a1.19,1.19,0,0,0-1.1.9l-1.3,4.7a.85.85,0,0,0,.8,1h2.7l.3-1.2h-2.3a.1.1,0,0,1-.1-.1Zm-3.3,2.3h1.3l-1-2.6h.2a1.19,1.19,0,0,0,1.1-.9l.6-2.1a.85.85,0,0,0-.8-1H335a1.19,1.19,0,0,0-1.1.9l-1.5,5.7h1.3l.9-3.3Zm-1.1-3.7.4-1.5c0-.1.2-.2.2-.2h1.3a.1.1,0,0,1,.1.1l-.4,1.3c0,.1-.2.2-.2.2h-1.4Zm-9.3-2.9a1.19,1.19,0,0,0-1.1.9l-1.3,4.7a.85.85,0,0,0,.8,1H326a1.19,1.19,0,0,0,1.1-.9l.8-2.8h-2.1l-.3,1.2h.9l-.3,1.1c0,.1-.2.2-.2.2h-1.3a.1.1,0,0,1-.1-.1l1-3.8c0-.1.2-.2.2-.2h2.5l.3-1.2Zm5.1,5.4a.22.22,0,0,0,.2-.2l1-3.8c0-.1,0-.1-.1-.1h-1.3a.22.22,0,0,0-.2.2l-1,3.8c0,.1,0,.1.1.1Zm-1.9,1.2a.85.85,0,0,1-.8-1l1.3-4.7a1.19,1.19,0,0,1,1.1-.9h2.2a.85.85,0,0,1,.8,1l-1.3,4.7a1.19,1.19,0,0,1-1.1.9Zm-6.7,2.9h28.9V321.8H321.9Zm-.7-14.9h30.2v15.5H321.2Z" transform="translate(-264.5 -223.4)"/><polygon class="cls-2" points="60.7 100 81.6 103 76.3 111.1 95.5 100 60.7 100"/></svg>