<svg id="レイヤー_1" data-name="レイヤー 1" xmlns="http://www.w3.org/2000/svg" viewBox="0 0 158.6 155"><path d="M280.9,317.7v-4.6h1.8v4.5a2.7,2.7,0,0,0,5.4,0v-4.5h1.8v4.6c0,2.5-1.4,4.2-4.4,4.2C282.3,321.9,280.9,320.2,280.9,317.7Z" transform="translate(-280.4 -223.5)"/><path d="M292.9,321.8h-1.8v-8.6h5.4c2,0,3.3.9,3.3,2.7a2.48,2.48,0,0,1-2,2.5l2.2,3.4h-2l-2-3.2h-3.1Zm3.6-4.7c1,0,1.6-.4,1.6-1.2s-.6-1.2-1.6-1.2h-3.6v2.4Z" transform="translate(-280.4 -223.5)"/><path d="M301.2,313.1h5.7c1.9,0,2.9.8,2.9,2.3a1.89,1.89,0,0,1-1.3,1.8,2.08,2.08,0,0,1,1.5,2.1c0,1.5-1.2,2.4-3,2.4h-5.9l.1-8.6Zm5.5,3.5c.9,0,1.4-.3,1.4-1s-.5-1-1.4-1h-3.8v2Zm-3.8,3.7h4c.9,0,1.4-.4,1.4-1.1s-.5-1.1-1.4-1.1h-4Z" transform="translate(-280.4 -223.5)"/><path d="M316.6,313.1l4.3,8.6H319l-1-2h-4.9l-1,2h-1.9l4.3-8.6Zm-2.7,5.2h3.4l-1.7-3.4Z" transform="translate(-280.4 -223.5)"/><path d="M330.8,321.8h-1.6l-5.6-6.4v6.4h-1.7v-8.6h1.8l5.4,6.1v-6.1h1.7v8.6Z" transform="translate(-280.4 -223.5)"/><path d="M344.4,313.1v1.5h-6.6v1.9h5.9V318h-5.9v2.1h6.6v1.5h-8.3V313h8.3Z" transform="translate(-280.4 -223.5)"/><path d="M350.4,316.1l2.7-3h2.2l-3.8,4.1,4.1,4.5h-2.2l-3-3.3-3.1,3.3h-2.2l4.1-4.5-3.8-4.1h2.2Z" transform="translate(-280.4 -223.5)"/><path d="M358.2,321.8h-1.8v-8.6h5.4c2,0,3.3.9,3.3,2.7s-1.3,2.7-3.3,2.7h-3.6Zm3.6-4.7c1,0,1.6-.5,1.6-1.2s-.6-1.2-1.6-1.2h-3.5v2.4Z" transform="translate(-280.4 -223.5)"/><path d="M366.3,313.1h1.8v7.1h6.1v1.5h-7.8v-8.6Z" transform="translate(-280.4 -223.5)"/><path d="M384.6,317.4c0,2.6-2.1,4.4-5.1,4.4s-5.1-1.9-5.1-4.4,2.1-4.4,5.1-4.4S384.6,314.9,384.6,317.4Zm-8.3,0c0,1.7,1.3,2.9,3.3,2.9a3,3,0,0,0,3.3-2.9c0-1.7-1.3-2.9-3.3-2.9S376.3,315.7,376.3,317.4Z" transform="translate(-280.4 -223.5)"/><path d="M387.8,321.8H386v-8.6h5.4c2,0,3.3.9,3.3,2.7a2.48,2.48,0,0,1-2,2.5l2.2,3.4h-2l-2-3.2h-3.1Zm3.5-4.7c1,0,1.6-.4,1.6-1.2s-.6-1.2-1.6-1.2h-3.6v2.4Z" transform="translate(-280.4 -223.5)"/><path d="M401.8,313.1l4.3,8.6h-1.9l-1-2h-4.9l-1,2h-1.9l4.3-8.6Zm-2.7,5.2h3.4l-1.7-3.4Z" transform="translate(-280.4 -223.5)"/><path d="M410.6,314.7v7.1h-1.8v-7.1H405v-1.5h9.4v1.5Z" transform="translate(-280.4 -223.5)"/><path d="M417.2,321.8h-1.8v-8.6h1.8Z" transform="translate(-280.4 -223.5)"/><path d="M428.8,317.4c0,2.6-2.1,4.4-5.1,4.4s-5.1-1.9-5.1-4.4,2.1-4.4,5.1-4.4S428.8,314.9,428.8,317.4Zm-8.4,0c0,1.7,1.3,2.9,3.3,2.9s3.3-1.2,3.3-2.9-1.3-2.9-3.3-2.9S420.4,315.7,420.4,317.4Z" transform="translate(-280.4 -223.5)"/><path d="M439,321.8h-1.6l-5.6-6.4v6.4h-1.7v-8.6h1.8l5.4,6.1v-6.1H439v8.6Z" transform="translate(-280.4 -223.5)"/><path d="M280.9,331.1a2.56,2.56,0,0,0,2.3,1.2c1,0,1.8-.4,1.8-1s-.5-.8-2-.9c-1.3-.1-2.2-.3-2.2-1.2s.9-1.4,2.1-1.4a2.77,2.77,0,0,1,2.4,1.1l-.4.3a2.27,2.27,0,0,0-2.1-1c-1,0-1.6.4-1.6,1s.6.7,1.9.8c1.6.2,2.3.4,2.3,1.3s-1,1.5-2.3,1.5a3,3,0,0,1-2.7-1.3Z" transform="translate(-280.4 -223.5)"/><path d="M286.9,333.9h-.4v-4.8h.4v.8a1.7,1.7,0,0,1,1.6-.8,1.76,1.76,0,0,1,1.9,1.8,1.82,1.82,0,0,1-1.9,1.8,2.08,2.08,0,0,1-1.6-.8Zm-.1-3a1.45,1.45,0,0,0,1.5,1.4,1.42,1.42,0,0,0,1.5-1.5,1.47,1.47,0,0,0-1.5-1.5,1.63,1.63,0,0,0-1.5,1.6Z" transform="translate(-280.4 -223.5)"/><path d="M293.5,329.5h-.4a1.37,1.37,0,0,0-1.4,1.4v1.7h-.4v-3.5h.4v.8a1.46,1.46,0,0,1,1.4-.9c.2,0,.3,0,.4.1Z" transform="translate(-280.4 -223.5)"/><path d="M294.2,327.8h.5v.6h-.5Zm.4,4.8h-.4v-3.5h.4Z" transform="translate(-280.4 -223.5)"/><path d="M295.8,329.1h.4v.7a1.73,1.73,0,0,1,1.5-.8,1.44,1.44,0,0,1,1.5,1.6v2h-.5v-1.9a1.1,1.1,0,0,0-1.2-1.2,1.36,1.36,0,0,0-1.4,1.4v1.8h-.4l.1-3.6Z" transform="translate(-280.4 -223.5)"/><path d="M302,333.9a2,2,0,0,1-1.9-1l.4-.2a1.46,1.46,0,0,0,1.5.9c.9,0,1.6-.5,1.6-1.3v-.4a1.7,1.7,0,0,1-1.6.8,1.76,1.76,0,0,1-1.9-1.8,1.82,1.82,0,0,1,1.9-1.8,1.92,1.92,0,0,1,1.6.8v-.7h.4v3.1C304,333.3,303.1,333.9,302,333.9Zm0-4.5a1.39,1.39,0,0,0-1.5,1.4,1.5,1.5,0,0,0,3,0h0C303.6,329.9,302.7,329.4,302,329.4Z" transform="translate(-280.4 -223.5)"/><path d="M306.5,331.1a2.56,2.56,0,0,0,2.3,1.2c1,0,1.8-.4,1.8-1s-.5-.8-2-.9c-1.3-.1-2.2-.3-2.2-1.2s.9-1.4,2.1-1.4a2.77,2.77,0,0,1,2.4,1.1l-.4.3a2.27,2.27,0,0,0-2.1-1c-1,0-1.6.4-1.6,1s.6.7,1.9.8c1.6.2,2.3.4,2.3,1.3s-1,1.5-2.3,1.5a3,3,0,0,1-2.7-1.3Z" transform="translate(-280.4 -223.5)"/><path d="M315.3,332.6h-.4v-.7a1.68,1.68,0,0,1-1.4.8,1.44,1.44,0,0,1-1.5-1.6v-2h.4v2a1.1,1.1,0,0,0,1.2,1.2,1.29,1.29,0,0,0,1.3-1.4v-1.8h.4Z" transform="translate(-280.4 -223.5)"/><path d="M316.5,329.1h.4v.7a1.43,1.43,0,0,1,1.3-.7,1.34,1.34,0,0,1,1.3.8,1.68,1.68,0,0,1,1.4-.8,1.37,1.37,0,0,1,1.5,1.5v2.1H322v-2a1,1,0,0,0-1.1-1.1,1.16,1.16,0,0,0-1.2,1.2v2h-.4v-2a1,1,0,0,0-1.1-1.1,1.16,1.16,0,0,0-1.2,1.2v2h-.4l-.1-3.8Z" transform="translate(-280.4 -223.5)"/><path d="M323.5,329.1h.4v.7a1.43,1.43,0,0,1,1.3-.7,1.34,1.34,0,0,1,1.3.8,1.68,1.68,0,0,1,1.4-.8,1.37,1.37,0,0,1,1.5,1.5v2.1H329v-2a1,1,0,0,0-1.1-1.1,1.16,1.16,0,0,0-1.2,1.2v2h-.4v-2a1,1,0,0,0-1.1-1.1,1.16,1.16,0,0,0-1.2,1.2v2h-.4l-.1-3.8Z" transform="translate(-280.4 -223.5)"/><path d="M333.7,331.4l.4.2a2,2,0,0,1-3.8-.7,2,2,0,0,1,3.9-.1v.2h-3.4a1.48,1.48,0,0,0,1.6,1.4A1.7,1.7,0,0,0,333.7,331.4Zm-3-.8h3a1.27,1.27,0,0,0-1.4-1.2A1.47,1.47,0,0,0,330.7,330.6Z" transform="translate(-280.4 -223.5)"/><path d="M337.2,329.5h-.4a1.37,1.37,0,0,0-1.4,1.4v1.7H335v-3.5h.4v.8a1.46,1.46,0,0,1,1.4-.9c.2,0,.3,0,.4.1v.4Z" transform="translate(-280.4 -223.5)"/><path d="M341.4,331c1.2-.7,1.9-1,1.9-1.8s-.7-1.2-1.6-1.2a2,2,0,0,0-2,1.4l-.4-.1a2.35,2.35,0,0,1,2.4-1.7c1.2,0,2.1.7,2.1,1.6s-.7,1.3-2,2.1l-1.6.9H344v.4h-4.6v-.4Z" transform="translate(-280.4 -223.5)"/><path d="M349.7,330.2a2.53,2.53,0,0,1-2.7,2.5,2.47,2.47,0,0,1-2.7-2.5,2.53,2.53,0,0,1,2.7-2.5A2.47,2.47,0,0,1,349.7,330.2Zm-4.9,0a2.08,2.08,0,0,0,2.2,2.1,2,2,0,0,0,2.2-2.1,2.2,2.2,0,0,0-4.4,0Z" transform="translate(-280.4 -223.5)"/><path d="M352.4,331c1.2-.7,1.9-1,1.9-1.8s-.7-1.2-1.6-1.2a2,2,0,0,0-2,1.4l-.4-.1a2.35,2.35,0,0,1,2.4-1.7c1.2,0,2.1.7,2.1,1.6s-.7,1.3-2,2.1l-1.6.9H355v.4h-4.6v-.4Z" transform="translate(-280.4 -223.5)"/><path d="M357.6,331c1.2-.7,1.9-1,1.9-1.8s-.7-1.2-1.6-1.2a2,2,0,0,0-2,1.4l-.4-.1a2.35,2.35,0,0,1,2.4-1.7c1.2,0,2.1.7,2.1,1.6s-.7,1.3-2,2.1l-1.6.9h3.8v.4h-4.6v-.4Z" transform="translate(-280.4 -223.5)"/><polygon points="35.1 13.7 32.2 13.7 32.2 2.4 28.2 2.4 28.2 0.1 39.3 0.1 39.3 2.4 35.1 2.4 35.1 13.7"/><polygon points="43.1 7.6 43.1 13.7 40.2 13.7 40.2 0.1 43.1 0.1 43.1 5.1 48.4 5.1 48.4 0.1 51.3 0.1 51.3 13.7 48.4 13.7 48.4 7.6 43.1 7.6"/><polygon points="62.2 2.4 55.1 2.4 55.1 5.3 61.4 5.3 61.4 7.7 55.1 7.7 55.1 11.3 62.2 11.3 62.2 13.7 52.4 13.7 52.4 0.1 62.2 0.1 62.2 2.4"/><polygon points="8.9 15.1 11.7 15.1 11.7 28.7 8.8 28.7 3.3 19 3.2 19 3.2 28.7 0.5 28.7 0.5 15.1 3.5 15.1 8.9 24.5 8.9 24.5 8.9 15.1"/><path d="M299.8,238.2c1.8,0,6.6.8,6.6,7.2s-4.7,7.2-6.6,7.2-6.6-.8-6.6-7.2c.2-6.5,4.9-7.2,6.6-7.2m0,11.9c1.5,0,3.7-.9,3.7-4.7s-2.2-4.7-3.7-4.7-3.7.9-3.7,4.7,2.2,4.7,3.7,4.7" transform="translate(-280.4 -223.5)"/><polygon points="46.1 28.7 43.3 28.7 43.3 17.5 39.2 17.5 39.2 15.1 50.2 15.1 50.2 17.5 46.1 17.5 46.1 28.7"/><polygon points="54 22.6 54 28.7 51.3 28.7 51.3 15.1 54 15.1 54 20.1 59.5 20.1 59.5 15.1 62.2 15.1 62.2 28.7 59.5 28.7 59.5 22.6 54 22.6"/><path d="M307.6,238.6h6.9c3.6,0,4.3,2.7,4.3,3.8a3.2,3.2,0,0,1-2.1,3.2c1.2.5,1.7.9,1.7,3.5,0,2,0,2.5.6,2.8v.3h-3.1a9.41,9.41,0,0,1-.3-2.8c0-1.8-.1-2.5-2.2-2.5h-2.9v5.3h-2.8V238.6Zm6.2,6c1.5,0,2.2-.5,2.2-1.8,0-.7-.3-1.7-2-1.7h-3.6v3.7h3.3v-.2Z" transform="translate(-280.4 -223.5)"/><polygon points="21.6 43.7 18.8 43.7 18.8 30.1 28.5 30.1 28.5 32.5 21.6 32.5 21.6 35.6 27.6 35.6 27.6 37.9 21.6 37.9 21.6 43.7"/><path d="M310.2,267.2h-3l4.8-13.6h3.2l4.8,13.6h-3l-.9-2.8H311Zm1.7-5.2h3.5l-1.7-5.4h0Z" transform="translate(-280.4 -223.5)"/><path d="M328.9,258.1a2.75,2.75,0,0,0-3-2.3c-1.4,0-3.3.9-3.3,4.7,0,2.4.9,4.6,3.3,4.6a2.85,2.85,0,0,0,3-2.5h2.9c-.6,3-2.5,5.1-5.9,5.1-3.6,0-6.2-2.4-6.2-7.2s2.8-7.2,6.2-7.2c4,0,5.8,2.8,5.9,4.8Z" transform="translate(-280.4 -223.5)"/><polygon points="62.2 32.5 55.1 32.5 55.1 35.4 61.4 35.4 61.4 37.8 55.1 37.8 55.1 41.3 62.2 41.3 62.2 43.7 52.4 43.7 52.4 30.1 62.2 30.1 62.2 32.5"/><path d="M295.3,263.4a2.1,2.1,0,1,1-2.1,2.1,2.11,2.11,0,0,1,2.1-2.1m0,3.9a1.77,1.77,0,0,0,1.7-1.8,1.69,1.69,0,0,0-1.7-1.7,1.75,1.75,0,0,0-1.7,1.7,1.77,1.77,0,0,0,1.7,1.8m-.8-3h.9c.6,0,.8.2.8.7s-.2.6-.7.7l.7,1h-.5l-.7-1h-.3v1h-.3v-2.4Zm.4,1h.3c.3,0,.7,0,.7-.3s-.2-.3-.6-.3h-.5v.6Z" transform="translate(-280.4 -223.5)"/><path d="M377,255.1a31.6,31.6,0,0,0-31.6-31.6h-.6v13.6h.6a18.53,18.53,0,0,1,18.5,18.2h0v11.8h13v-12Z" transform="translate(-280.4 -223.5)"/><path d="M345.4,253.6h-.6v13.6h6.6v-7.7a6.06,6.06,0,0,0-6-5.9" transform="translate(-280.4 -223.5)"/><path d="M362.5,255.5a17,17,0,0,0-17.1-17.1h-.7V252h.6a7.28,7.28,0,0,1,7.3,7.3V267h9.8V255.5Z" transform="translate(-280.4 -223.5)"/><path d="M283,367a1.08,1.08,0,0,1-1.1.7,1.18,1.18,0,0,1-1.2-1.3,1.24,1.24,0,0,1,1.2-1.3,1.29,1.29,0,0,1,1.2.9l-.4.1a.76.76,0,0,0-.8-.6.91.91,0,0,0,0,1.8.75.75,0,0,0,.7-.5Z" transform="translate(-280.4 -223.5)"/><path d="M283.6,366.4a1.24,1.24,0,0,1,1.2-1.3,1.18,1.18,0,0,1,1.2,1.3,1.24,1.24,0,0,1-1.2,1.3A1.18,1.18,0,0,1,283.6,366.4Zm2,0a.81.81,0,1,0-.8.9A.88.88,0,0,0,285.6,366.4Z" transform="translate(-280.4 -223.5)"/><path d="M286.8,366.9v-1.7h.4v.3a1.23,1.23,0,0,1,.8-.4c.6,0,1,.5,1,1.3s-.5,1.3-1,1.3a.91.91,0,0,1-.8-.4v1.3h-.4Zm1.8-.5a.72.72,0,1,0-.7.9A.81.81,0,0,0,288.6,366.4Z" transform="translate(-280.4 -223.5)"/><path d="M290.5,367.6l-1-2.3h.5l.8,1.9.8-1.9h.4l-1.5,3.4H290Z" transform="translate(-280.4 -223.5)"/><path d="M294.6,367.7h-2.1v-.4h.7v-1.7h-.6v-.4h1v.3a.91.91,0,0,1,.7-.3.78.78,0,0,1,.7.3l-.3.3a.76.76,0,0,0-.5-.2.53.53,0,0,0-.6.6v1.1h1v.4Z" transform="translate(-280.4 -223.5)"/><path d="M298.1,367.7h-2.7v-.4h1.3v-1.7h-1.1v-.4h1.5v2h1v.5Zm-1.8-3.2a.4.4,0,1,1,.4.4A.43.43,0,0,1,296.3,364.5Z" transform="translate(-280.4 -223.5)"/><path d="M300.3,367.2a.91.91,0,0,1-.7.3,1.06,1.06,0,0,1-1-1.2c0-.7.4-1.2,1-1.2a.91.91,0,0,1,.7.3v-.3h.4v2c0,1.1-.5,1.4-1.1,1.4a1.27,1.27,0,0,1-.9-.4l.4-.2a.86.86,0,0,0,.6.3C300,368.3,300.3,368,300.3,367.2Zm-1.3-.8a.71.71,0,1,0,.7-.8A.71.71,0,0,0,299,366.4Z" transform="translate(-280.4 -223.5)"/><path d="M301.6,366v-1.7h.4v1.3a1.23,1.23,0,0,1,.8-.4.9.9,0,0,1,.9.9v1.5h-.4v-1.5a.58.58,0,0,0-.6-.6.66.66,0,0,0-.7.6v1.5h-.4Z" transform="translate(-280.4 -223.5)"/><path d="M304.9,365.6h-.5v-.4h.5v-.7l.4-.1v.8h1.4v.4h-1.4v1.1c0,.4.2.6.5.6a.47.47,0,0,0,.5-.5,1.09,1.09,0,0,0-.1-.5l.4-.1c.1.1.1.4.1.6a.9.9,0,0,1-.9.9.84.84,0,0,1-.9-.9Z" transform="translate(-280.4 -223.5)"/><path d="M309.9,366.2a1.5,1.5,0,1,1,1.5,1.5A1.54,1.54,0,0,1,309.9,366.2Zm2.6,0a1.22,1.22,0,0,0-1.2-1.2,1.2,1.2,0,1,0,1.2,1.2Zm-.5.3a.62.62,0,0,1-.6.4.7.7,0,1,1,0-1.4.75.75,0,0,1,.7.5l-.3.1c0-.2-.2-.3-.4-.3a.43.43,0,0,0-.4.4.37.37,0,0,0,.4.4.52.52,0,0,0,.4-.2Z" transform="translate(-280.4 -223.5)"/><path d="M316,367.7a1.62,1.62,0,0,1,.9-1.4c.5-.3.9-.5.9-.9a.66.66,0,0,0-.7-.6.77.77,0,0,0-.8.7h-.4a1.13,1.13,0,0,1,1.2-1.1.94.94,0,0,1,1,1c0,.6-.5.9-.9,1.1s-.8.4-.9.8h1.9v.4Z" transform="translate(-280.4 -223.5)"/><path d="M318.8,366c0-1,.5-1.7,1.3-1.7s1.3.7,1.3,1.7-.5,1.7-1.3,1.7S318.8,367,318.8,366Zm.5.8,1.3-1.8a.55.55,0,0,0-.5-.3c-.5,0-.9.5-.9,1.3C319.2,366.3,319.3,366.6,319.3,366.8Zm1.6-.8a1.48,1.48,0,0,0-.1-.7l-1.3,1.8c.1.2.3.2.5.2C320.6,367.3,320.9,366.8,320.9,366Z" transform="translate(-280.4 -223.5)"/><path d="M321.9,367.7a1.62,1.62,0,0,1,.9-1.4c.5-.3.9-.5.9-.9a.66.66,0,0,0-.7-.6.77.77,0,0,0-.8.7h-.4a1.13,1.13,0,0,1,1.2-1.1.94.94,0,0,1,1,1c0,.6-.5.9-.9,1.1s-.8.4-.9.8h1.9v.4Z" transform="translate(-280.4 -223.5)"/><path d="M324.8,367.7a1.62,1.62,0,0,1,.9-1.4c.5-.3.9-.5.9-.9a.66.66,0,0,0-.7-.6.77.77,0,0,0-.8.7h-.4a1.13,1.13,0,0,1,1.2-1.1.94.94,0,0,1,1,1c0,.6-.5.9-.9,1.1s-.8.4-.9.8H327v.4Z" transform="translate(-280.4 -223.5)"/><path d="M332.9,366.1v1.4a2.61,2.61,0,0,1-1.1.3c-.9,0-1.4-.7-1.4-1.7s.5-1.7,1.4-1.7a1.43,1.43,0,0,1,1.1.5l-.3.3a1.23,1.23,0,0,0-.8-.4c-.7,0-1,.5-1,1.3s.4,1.3,1.2,1.3a.75.75,0,0,0,.5-.1v-.8h-.6v-.4Z" transform="translate(-280.4 -223.5)"/><path d="M333.4,366c0-1,.5-1.7,1.3-1.7s1.3.7,1.3,1.7-.5,1.7-1.3,1.7S333.4,367,333.4,366Zm2.1,0c0-.8-.3-1.3-.8-1.3s-.8.5-.8,1.3.3,1.3.8,1.3S335.5,366.8,335.5,366Z" transform="translate(-280.4 -223.5)"/><path d="M338.7,367.7h-2v-3.3h.4v2.9h1.6Z" transform="translate(-280.4 -223.5)"/><path d="M341.7,366c0,1.2-.6,1.7-1.6,1.7h-.7v-3.3h.7A1.47,1.47,0,0,1,341.7,366Zm-1.8-1.3v2.6h.3c.9,0,1.2-.6,1.2-1.3a1.18,1.18,0,0,0-1.2-1.3Z" transform="translate(-280.4 -223.5)"/><path d="M343.4,365.9l-.3,1.8h-.6l-.4-3.3h.4l.3,3,.3-1.8h.6l.3,1.8.3-3h.4l-.4,3.3h-.6Z" transform="translate(-280.4 -223.5)"/><path d="M347.4,367.7h-2.1v-.4h.9v-2.5h-.9v-.4h2.1v.4h-.9v2.5h.9Z" transform="translate(-280.4 -223.5)"/><path d="M348.5,364.7v3h-.4v-3.3h.7l1.1,2.8v-2.8h.4v3.3h-.7Z" transform="translate(-280.4 -223.5)"/><path d="M356.4,367.7h-2.7v-.4H355v-1.7h-1.1v-.4h1.5v2h1v.5Zm-1.9-3.2a.4.4,0,1,1,.4.4A.43.43,0,0,1,354.5,364.5Z" transform="translate(-280.4 -223.5)"/><path d="M357,366.4v-1.2h.4v.3a1.23,1.23,0,0,1,.8-.4.9.9,0,0,1,.9.9v1.5h-.4V366a.58.58,0,0,0-.6-.6.66.66,0,0,0-.7.6v1.5H357Z" transform="translate(-280.4 -223.5)"/><path d="M362.2,367a1.08,1.08,0,0,1-1.1.7,1.18,1.18,0,0,1-1.2-1.3,1.24,1.24,0,0,1,1.2-1.3,1.29,1.29,0,0,1,1.2.9l-.4.1a.76.76,0,0,0-.8-.6.91.91,0,0,0,0,1.8.75.75,0,0,0,.7-.5Z" transform="translate(-280.4 -223.5)"/><path d="M363.2,367.3a.4.4,0,1,1,.4.4A.43.43,0,0,1,363.2,367.3Z" transform="translate(-280.4 -223.5)"/><path d="M282.7,377.7a.46.46,0,0,1-.5-.4,1.23,1.23,0,0,1-.8.4c-.5,0-.8-.2-.8-.6s.3-.6.8-.7a2.2,2.2,0,0,1,.8-.1v-.2c0-.4-.3-.5-.6-.5a.46.46,0,0,0-.5.4v.1l-.4.1v-.1c0-.4.4-.7,1-.7s.9.3.9.8v1.2a.22.22,0,0,0,.2.2c.1,0,.2-.2.2-.4l.3.1A.72.72,0,0,1,282.7,377.7Zm-1.3-.3a.84.84,0,0,0,.7-.4v-.4c-.3,0-.6.1-.8.1s-.3.2-.3.4S281.1,377.4,281.4,377.4Z" transform="translate(-280.4 -223.5)"/><path d="M283.8,376v-1.7h.4v3.4h-.4Zm1.5,1.7v-3.4h.4v3.4Z" transform="translate(-280.4 -223.5)"/><path d="M291.4,377.7h-2.1v-.4h.7v-1.7h-.6v-.4h1v.3a.91.91,0,0,1,.7-.3.78.78,0,0,1,.7.3l-.3.3a.76.76,0,0,0-.5-.2.53.53,0,0,0-.6.6v1.1h1v.4Z" transform="translate(-280.4 -223.5)"/><path d="M295,377.7h-2.7v-.4h1.3v-1.7h-1.1v-.4H294v2h1v.5Zm-1.9-3.2a.4.4,0,1,1,.4.4A.43.43,0,0,1,293.1,374.5Z" transform="translate(-280.4 -223.5)"/><path d="M297.1,377.2a.91.91,0,0,1-.7.3,1.06,1.06,0,0,1-1-1.2c0-.7.4-1.2,1-1.2a.91.91,0,0,1,.7.3v-.3h.4v2c0,1.1-.5,1.4-1.1,1.4a1.27,1.27,0,0,1-.9-.4l.4-.2a.86.86,0,0,0,.6.3C296.9,378.3,297.1,378,297.1,377.2Zm-1.2-.8a.71.71,0,1,0,.7-.8A.71.71,0,0,0,295.9,376.4Z" transform="translate(-280.4 -223.5)"/><path d="M298.5,376v-1.7h.4v1.3a1.23,1.23,0,0,1,.8-.4.9.9,0,0,1,.9.9v1.5h-.4v-1.5a.58.58,0,0,0-.6-.6.66.66,0,0,0-.7.6v1.5h-.4Z" transform="translate(-280.4 -223.5)"/><path d="M301.7,375.6h-.5v-.4h.5v-.7l.4-.1v.8h1.4v.4h-1.4v1.1c0,.4.2.6.5.6a.47.47,0,0,0,.5-.5,1.09,1.09,0,0,0-.1-.5l.4-.1c.1.1.1.4.1.6a.9.9,0,0,1-.9.9.84.84,0,0,1-.9-.9Z" transform="translate(-280.4 -223.5)"/><path d="M306.1,375.8a1.22,1.22,0,0,0-.9-.3c-.4,0-.5.1-.5.3s.2.3.7.4.9.3.9.7-.4.7-1,.7a1.25,1.25,0,0,1-1.1-.4l.3-.3a1.4,1.4,0,0,0,.9.3c.3,0,.5-.1.5-.3s-.2-.3-.8-.4c-.4-.1-.7-.3-.7-.7s.4-.7.9-.7a1.69,1.69,0,0,1,1,.3Z" transform="translate(-280.4 -223.5)"/><path d="M312,377.7h-2.1v-.4h.7v-1.7H310v-.4h1v.3a.91.91,0,0,1,.7-.3.78.78,0,0,1,.7.3l-.3.3a.76.76,0,0,0-.5-.2.53.53,0,0,0-.6.6v1.1h1v.4Z" transform="translate(-280.4 -223.5)"/><path d="M315.2,377.2a1.15,1.15,0,0,1-1.1.6,1.18,1.18,0,0,1-1.2-1.3,1.24,1.24,0,0,1,1.2-1.3,1.08,1.08,0,0,1,1.1,1.2v.3h-2a.88.88,0,0,0,.9.7,1.23,1.23,0,0,0,.8-.4Zm-1.9-.9h1.6a.77.77,0,0,0-.8-.7A.71.71,0,0,0,313.3,376.3Z" transform="translate(-280.4 -223.5)"/><path d="M317.8,375.8a1.22,1.22,0,0,0-.9-.3c-.3,0-.5.1-.5.3s.2.3.7.4.9.3.9.7-.4.7-1,.7a1.25,1.25,0,0,1-1.1-.4l.3-.3a1.4,1.4,0,0,0,.9.3c.3,0,.5-.1.5-.3s-.2-.3-.8-.4c-.4-.1-.7-.3-.7-.7s.4-.7.9-.7a1.69,1.69,0,0,1,1,.3Z" transform="translate(-280.4 -223.5)"/><path d="M321,377.2a1.15,1.15,0,0,1-1.1.6,1.18,1.18,0,0,1-1.2-1.3,1.24,1.24,0,0,1,1.2-1.3,1.08,1.08,0,0,1,1.1,1.2v.3h-2a.88.88,0,0,0,.9.7,1.23,1.23,0,0,0,.8-.4Zm-1.9-.9h1.6a.77.77,0,0,0-.8-.7A.85.85,0,0,0,319.1,376.3Z" transform="translate(-280.4 -223.5)"/><path d="M323.8,377.7h-2.1v-.4h.7v-1.7h-.6v-.4h1v.3a.91.91,0,0,1,.7-.3.78.78,0,0,1,.7.3l-.3.3a.76.76,0,0,0-.5-.2.53.53,0,0,0-.6.6v1.1h1v.4Z" transform="translate(-280.4 -223.5)"/><path d="M325.8,377.7l-1.1-2.4h.5l.8,1.9.8-1.9h.4l-1.1,2.4Z" transform="translate(-280.4 -223.5)"/><path d="M330,377.2a1.15,1.15,0,0,1-1.1.6,1.18,1.18,0,0,1-1.2-1.3,1.24,1.24,0,0,1,1.2-1.3,1.08,1.08,0,0,1,1.1,1.2v.3h-2a.88.88,0,0,0,.9.7,1.23,1.23,0,0,0,.8-.4Zm-1.9-.9h1.6a.81.81,0,0,0-1.6,0Z" transform="translate(-280.4 -223.5)"/><path d="M332.5,375.6v-1.3h.4v3.4h-.4v-.3a1.23,1.23,0,0,1-.8.4c-.6,0-1-.5-1-1.3s.5-1.3,1-1.3A.91.91,0,0,1,332.5,375.6Zm-1.4.9a.72.72,0,1,0,.7-.9C331.4,375.6,331.1,375.9,331.1,376.5Z" transform="translate(-280.4 -223.5)"/><path d="M334.1,377.3a.4.4,0,1,1,.4.4A.43.43,0,0,1,334.1,377.3Z" transform="translate(-280.4 -223.5)"/></svg>