<svg id="レイヤー_1" data-name="レイヤー 1" xmlns="http://www.w3.org/2000/svg" viewBox="0 0 293 56.6"><defs><style>.cls-1{fill:#bfbfbf;}</style></defs><path class="cls-1" d="M349.5,336.5c0-5.1-2.8-5.1-6.6-5.2v-1.9c3.4.1,6.7.1,10,.1s6.7-.1,10.3-.1v1.9c-3.8.1-6.6.1-6.6,5.2v36.4c0,5.1,2.8,5.1,6.6,5.2V380c-3.5,0-6.6-.1-9.8-.1-3.5,0-6.9.1-10.5.1v-1.9c3.8-.1,6.6-.1,6.6-5.2Z" transform="translate(-342.9 -324.5)"/><path class="cls-1" d="M378,356.5c0-2.7-.8-3.4-4.2-4.8v-1.4c3.1-1,6.1-2,9.6-3.5.2,0,.4.1.4.7v4.7c4.1-3,7.7-5.4,12.5-5.4,6.2,0,8.3,4.5,8.3,10.2v18.7c0,2.4,1.6,2.4,3.6,2.4h1.3V380c-2.5,0-5.1-.1-7.7-.1s-5.2.1-7.8.1v-1.9h1.3c2,0,3.5,0,3.5-2.4V357c0-4.1-2.5-6.2-6.7-6.2-2.3,0-6,1.9-8.4,3.5v21.5c0,2.4,1.6,2.4,3.6,2.4h1.3v1.9c-2.5,0-5.1-.1-7.7-.1s-5.2.1-7.8.1v-1.9h1.3c2,0,3.5,0,3.5-2.4V356.5Z" transform="translate(-342.9 -324.5)"/><path d="M422.7,355.4c-2.1-5.5-2.8-5.6-5.6-5.6V348c2.4.1,4.9.1,7.3.1s5-.1,7.5-.1v1.9c-3.3,0-4.1.2-4.1,2,0,1.2,1.1,3.4,2.3,6.7l5.1,13.8,6-14.9a18.76,18.76,0,0,0,1.5-5.6c.1-1.5-.8-1.7-3.8-2V348c1.7.1,3.5.1,5.2.1,2.2,0,4.4-.1,6.6-.1v1.9c-3.4,0-4.5,2-5.8,5.2l-10.4,26h-1.8Z" transform="translate(-342.9 -324.5)"/><path d="M459.9,378.1h1.4c2,0,3.5,0,3.5-2.4V356c0-3.2-1.1-3.6-3.8-5.1v-1.2c3.4-1,7.5-2.4,7.8-2.6a2.42,2.42,0,0,1,1.3-.4c.4,0,.5.4.5,1v27.8c0,2.4,1.6,2.4,3.6,2.4h1.2v1.9c-2.5,0-5-.1-7.6-.1s-5.2.1-7.9.1Zm7.8-42.4a3.55,3.55,0,1,1,0-7.1,3.56,3.56,0,0,1,3.6,3.5A3.65,3.65,0,0,1,467.7,335.7Z" transform="translate(-342.9 -324.5)"/><path d="M486.4,369.9c.9,4.8,3.8,8.8,9.1,8.8,4.3,0,5.9-2.6,5.9-5.1,0-8.6-15.8-5.8-15.8-17.5,0-4.1,3.3-9.3,11.2-9.3a20.29,20.29,0,0,1,8.3,2.1l.5,7.4H504c-.7-4.6-3.3-7.2-7.9-7.2-2.9,0-5.7,1.7-5.7,4.8,0,8.5,16.8,5.9,16.8,17.3,0,4.8-3.8,9.9-12.5,9.9a18.26,18.26,0,0,1-8.8-2.5l-.8-8.3Z" transform="translate(-342.9 -324.5)"/><path d="M517.7,378.1h1.4c2,0,3.5,0,3.5-2.4V356c0-3.2-1.1-3.6-3.8-5.1v-1.2c3.4-1,7.5-2.4,7.8-2.6a2.42,2.42,0,0,1,1.3-.4c.4,0,.5.4.5,1v27.8c0,2.4,1.6,2.4,3.6,2.4h1.2v1.9c-2.5,0-5-.1-7.6-.1s-5.2.1-7.9.1Zm7.8-42.4a3.55,3.55,0,1,1,0-7.1,3.56,3.56,0,0,1,3.6,3.5A3.79,3.79,0,0,1,525.5,335.7Z" transform="translate(-342.9 -324.5)"/><path d="M551.7,352.1c2.9-2.5,6.8-5.2,10.8-5.2,8.4,0,13.5,7.3,13.5,15.2,0,9.5-7,19-17.3,19a21.46,21.46,0,0,1-10.1-2.5l-2.2,1.7-1.5-.8a79.21,79.21,0,0,0,1-12.9V335.4c0-4.7-1.1-4.9-3.8-5.7v-1.2a43.76,43.76,0,0,0,7.5-3.1,10.87,10.87,0,0,1,1.6-.8c.4,0,.6.4.6,1v26.5Zm0,19.7c0,2.8,2.6,7.4,7.5,7.4,7.8,0,11-7.6,11-14.1,0-7.8-5.9-14.4-11.6-14.4-2.7,0-4.9,1.7-6.9,3.4Z" transform="translate(-342.9 -324.5)"/><path d="M584.6,378.1H586c2,0,3.5,0,3.5-2.4V335.3c0-4.7-1.1-4.9-3.8-5.7v-1.2a43.76,43.76,0,0,0,7.5-3.1,10.87,10.87,0,0,1,1.6-.8c.4,0,.6.4.6,1v50.1c0,2.4,1.6,2.4,3.6,2.4h1.2v1.9c-2.5,0-5-.1-7.6-.1s-5.2.1-7.9.1v-1.8Z" transform="translate(-342.9 -324.5)"/><path d="M614.4,360a26.41,26.41,0,0,0,0,4.2c.4,6.9,4.9,12.5,10.7,12.5,4,0,7.1-2.2,9.8-4.9l1,1c-3.3,4.4-7.5,8.2-13.4,8.2-11.5,0-13.9-11.2-13.9-15.8,0-14.2,9.6-18.4,14.7-18.4,5.9,0,12.2,3.7,12.3,11.4a5.7,5.7,0,0,1-.1,1.3l-.7.4H614.4Zm12.8-2.3c1.8,0,2-.9,2-1.8,0-3.7-2.2-6.7-6.3-6.7-4.4,0-7.5,3.3-8.3,8.5Z" transform="translate(-342.9 -324.5)"/></svg>