<svg viewBox="0 0 158.6 93.6" xmlns="http://www.w3.org/2000/svg"><g transform="translate(-244.9 -125.98)"><path d="m245.4 203.38v-4.6h1.8v4.5a2.7 2.7 0 1 0 5.4 0v-4.5h1.8v4.6c0 2.5-1.4 4.2-4.4 4.2-3.2 0-4.6-1.7-4.6-4.2z"/><path d="m257.4 207.48h-1.8v-8.6h5.4c2 0 3.3.9 3.3 2.7a2.48 2.48 0 0 1 -2 2.5l2.2 3.4h-2l-2-3.2h-3.1zm3.6-4.7c1 0 1.6-.4 1.6-1.2s-.6-1.2-1.6-1.2h-3.6v2.4z"/><path d="m265.7 198.78h5.7c1.9 0 2.9.8 2.9 2.3a1.89 1.89 0 0 1 -1.3 1.8 2.08 2.08 0 0 1 1.5 2.1c0 1.5-1.2 2.4-3 2.4h-5.9v-8.6zm5.5 3.5c.9 0 1.4-.3 1.4-1s-.5-1-1.4-1h-3.8v2zm-3.8 3.7h4c.9 0 1.4-.4 1.4-1.1s-.5-1.1-1.4-1.1h-4z"/><path d="m281.1 198.78 4.3 8.6h-1.9l-1-2h-4.9l-1 2h-1.9l4.3-8.6zm-2.7 5.2h3.4l-1.7-3.4z"/><path d="m295.3 207.48h-1.6l-5.6-6.4v6.4h-1.7v-8.6h1.8l5.4 6.1v-6.1h1.7z"/><path d="m308.9 198.78v1.5h-6.6v1.9h5.9v1.5h-5.9v2.1h6.6v1.5h-8.3v-8.6h8.3z"/><path d="m314.9 201.78 2.7-3h2.2l-3.8 4.1 4.1 4.5h-2.2l-3-3.3-3.1 3.3h-2.2l4.1-4.5-3.8-4.1h2.2z"/><path d="m322.7 207.48h-1.8v-8.6h5.4c2 0 3.3.9 3.3 2.7s-1.3 2.7-3.3 2.7h-3.6zm3.6-4.7c1 0 1.6-.5 1.6-1.2s-.6-1.2-1.6-1.2h-3.5v2.4z"/><path d="m330.8 198.78h1.8v7.1h6.1v1.5h-7.8v-8.6z"/><path d="m349.1 203.08c0 2.6-2.1 4.4-5.1 4.4s-5.1-1.9-5.1-4.4 2.1-4.4 5.1-4.4 5.1 1.9 5.1 4.4zm-8.3 0c0 1.7 1.3 2.9 3.3 2.9a3 3 0 0 0 3.3-2.9c0-1.7-1.3-2.9-3.3-2.9s-3.3 1.2-3.3 2.9z"/><path d="m352.3 207.48h-1.8v-8.6h5.4c2 0 3.3.9 3.3 2.7a2.48 2.48 0 0 1 -2 2.5l2.2 3.4h-2l-2-3.2h-3.1zm3.5-4.7c1 0 1.6-.4 1.6-1.2s-.6-1.2-1.6-1.2h-3.6v2.4z"/><path d="m366.3 198.78 4.3 8.6h-1.9l-1-2h-4.9l-1 2h-1.9l4.3-8.6zm-2.7 5.2h3.4l-1.7-3.4z"/><path d="m375.1 200.38v7.1h-1.8v-7.1h-3.8v-1.5h9.4v1.5z"/><path d="m381.7 207.48h-1.8v-8.6h1.8z"/><path d="m393.3 203.08c0 2.6-2.1 4.4-5.1 4.4s-5.1-1.9-5.1-4.4 2.1-4.4 5.1-4.4 5.1 1.9 5.1 4.4zm-8.4 0c0 1.7 1.3 2.9 3.3 2.9s3.3-1.2 3.3-2.9-1.3-2.9-3.3-2.9-3.3 1.2-3.3 2.9z"/><path d="m403.5 207.48h-1.6l-5.6-6.4v6.4h-1.7v-8.6h1.8l5.4 6.1v-6.1h1.7z"/><path d="m245.4 216.78a2.56 2.56 0 0 0 2.3 1.2c1 0 1.8-.4 1.8-1s-.5-.8-2-.9c-1.3-.1-2.2-.3-2.2-1.2s.9-1.4 2.1-1.4a2.77 2.77 0 0 1 2.4 1.1l-.4.3a2.27 2.27 0 0 0 -2.1-1c-1 0-1.6.4-1.6 1s.6.7 1.9.8c1.6.2 2.3.4 2.3 1.3s-1 1.5-2.3 1.5a3 3 0 0 1 -2.7-1.3z"/><path d="m251.4 219.58h-.4v-4.8h.4v.8a1.7 1.7 0 0 1 1.6-.8 1.76 1.76 0 0 1 1.9 1.8 1.82 1.82 0 0 1 -1.9 1.8 2.08 2.08 0 0 1 -1.6-.8zm-.1-3a1.45 1.45 0 0 0 1.5 1.4 1.42 1.42 0 0 0 1.5-1.5 1.47 1.47 0 0 0 -1.5-1.5 1.63 1.63 0 0 0 -1.5 1.6z"/><path d="m258 215.18h-.4a1.37 1.37 0 0 0 -1.4 1.4v1.7h-.4v-3.5h.4v.8a1.46 1.46 0 0 1 1.4-.9c.2 0 .3 0 .4.1z"/><path d="m258.7 213.48h.5v.6h-.5zm.4 4.8h-.4v-3.5h.4z"/><path d="m260.3 214.78h.4v.7a1.73 1.73 0 0 1 1.5-.8 1.44 1.44 0 0 1 1.5 1.6v2h-.5v-1.9a1.1 1.1 0 0 0 -1.2-1.2 1.36 1.36 0 0 0 -1.4 1.4v1.8h-.4v-3.6z"/><path d="m266.5 219.58a2 2 0 0 1 -1.9-1l.4-.2a1.46 1.46 0 0 0 1.5.9c.9 0 1.6-.5 1.6-1.3v-.4a1.7 1.7 0 0 1 -1.6.8 1.76 1.76 0 0 1 -1.9-1.8 1.82 1.82 0 0 1 1.9-1.8 1.92 1.92 0 0 1 1.6.8v-.7h.4v3.12c0 1-.9 1.58-2 1.58zm0-4.5a1.39 1.39 0 0 0 -1.5 1.4 1.5 1.5 0 0 0 3 0c.1-.9-.8-1.4-1.5-1.4z"/><path d="m271 216.78a2.56 2.56 0 0 0 2.3 1.2c1 0 1.8-.4 1.8-1s-.5-.8-2-.9c-1.3-.1-2.2-.3-2.2-1.2s.9-1.4 2.1-1.4a2.77 2.77 0 0 1 2.4 1.1l-.4.3a2.27 2.27 0 0 0 -2.1-1c-1 0-1.6.4-1.6 1s.6.7 1.9.8c1.6.2 2.3.4 2.3 1.3s-1 1.5-2.3 1.5a3 3 0 0 1 -2.7-1.3z"/><path d="m279.8 218.28h-.4v-.7a1.68 1.68 0 0 1 -1.4.8 1.44 1.44 0 0 1 -1.5-1.6v-2h.4v2a1.1 1.1 0 0 0 1.2 1.2 1.29 1.29 0 0 0 1.3-1.4v-1.8h.4z"/><path d="m281 214.78h.4v.7a1.43 1.43 0 0 1 1.3-.7 1.34 1.34 0 0 1 1.3.8 1.68 1.68 0 0 1 1.4-.8 1.37 1.37 0 0 1 1.5 1.5v2.1h-.4v-2a1 1 0 0 0 -1.1-1.1 1.16 1.16 0 0 0 -1.2 1.2v2h-.4v-2a1 1 0 0 0 -1.1-1.1 1.16 1.16 0 0 0 -1.2 1.2v2h-.4v-3.8z"/><path d="m288 214.78h.4v.7a1.43 1.43 0 0 1 1.3-.7 1.34 1.34 0 0 1 1.3.8 1.68 1.68 0 0 1 1.4-.8 1.37 1.37 0 0 1 1.5 1.5v2.1h-.4v-2a1 1 0 0 0 -1.1-1.1 1.16 1.16 0 0 0 -1.2 1.2v2h-.4v-2a1 1 0 0 0 -1.1-1.1 1.16 1.16 0 0 0 -1.2 1.2v2h-.4v-3.8z"/><path d="m298.2 217.08.4.2a2 2 0 0 1 -3.8-.7 2 2 0 0 1 3.9-.1v.2h-3.4a1.48 1.48 0 0 0 1.6 1.4 1.7 1.7 0 0 0 1.3-1zm-3-.8h3a1.27 1.27 0 0 0 -1.4-1.2 1.47 1.47 0 0 0 -1.6 1.2z"/><path d="m301.7 215.18h-.4a1.37 1.37 0 0 0 -1.4 1.4v1.7h-.4v-3.5h.4v.8a1.46 1.46 0 0 1 1.4-.9c.2 0 .3 0 .4.1z"/><path d="m305.9 216.68c1.2-.7 1.9-1 1.9-1.8s-.7-1.2-1.6-1.2a2 2 0 0 0 -2 1.4l-.4-.1a2.35 2.35 0 0 1 2.4-1.7c1.2 0 2.1.7 2.1 1.6s-.7 1.3-2 2.1l-1.6.9h3.8v.4h-4.6v-.4z"/><path d="m314.2 215.88a2.53 2.53 0 0 1 -2.7 2.5 2.47 2.47 0 0 1 -2.7-2.5 2.53 2.53 0 0 1 2.7-2.5 2.47 2.47 0 0 1 2.7 2.5zm-4.9 0a2.08 2.08 0 0 0 2.2 2.1 2 2 0 0 0 2.2-2.1 2.2 2.2 0 0 0 -4.4 0z"/><path d="m316.9 216.68c1.2-.7 1.9-1 1.9-1.8s-.7-1.2-1.6-1.2a2 2 0 0 0 -2 1.4l-.4-.1a2.35 2.35 0 0 1 2.4-1.7c1.2 0 2.1.7 2.1 1.6s-.7 1.3-2 2.1l-1.6.9h3.8v.4h-4.6v-.4z"/><path d="m322.1 216.68c1.2-.7 1.9-1 1.9-1.8s-.7-1.2-1.6-1.2a2 2 0 0 0 -2 1.4l-.4-.1a2.35 2.35 0 0 1 2.4-1.7c1.2 0 2.1.7 2.1 1.6s-.7 1.3-2 2.1l-1.6.9h3.8v.4h-4.6v-.4z"/></g><path d="m30.5 11.9h-2.5v-9.8h-3.5v-2h9.6v2h-3.6z"/><path d="m37.4 6.6v5.3h-2.5v-11.8h2.5v4.4h4.6v-4.4h2.5v11.8h-2.5v-5.3z"/><path d="m54 2.1h-6.2v2.5h5.5v2.1h-5.5v3.1h6.2v2.1h-8.5v-11.8h8.5z"/><path d="m7.8 13.1h2.4v11.8h-2.5l-4.8-8.4h-.1v8.4h-2.3v-11.8h2.6l4.7 8.2z"/><path d="m261.8 138.78c1.6 0 5.7.7 5.7 6.2s-4.1 6.2-5.7 6.2-5.7-.7-5.7-6.2 4.2-6.2 5.7-6.2m0 10.3c1.3 0 3.2-.8 3.2-4.1s-1.9-4.1-3.2-4.1-3.2.8-3.2 4.1 1.9 4.1 3.2 4.1" transform="translate(-244.9 -125.98)"/><path d="m40 24.9h-2.4v-9.7h-3.6v-2.1h9.6v2.1h-3.6z"/><path d="m46.9 19.6v5.3h-2.4v-11.8h2.4v4.4h4.7v-4.4h2.4v11.8h-2.4v-5.3z"/><path d="m268.5 139.08h6c3.1 0 3.7 2.3 3.7 3.3a2.88 2.88 0 0 1 -1.8 2.8c1 .4 1.5.8 1.5 3 0 1.7 0 2.2.5 2.4v.3h-2.7a7 7 0 0 1 -.3-2.4c0-1.6-.1-2.2-1.9-2.2h-2.5v4.6h-2.4v-11.8zm5.4 5.2c1.3 0 1.9-.4 1.9-1.6 0-.6-.3-1.5-1.7-1.5h-3.1v3.2h2.9z" transform="translate(-244.9 -125.98)"/><path d="m18.8 37.9h-2.4v-11.8h8.4v2.1h-6v2.7h5.2v2h-5.2z"/><path d="m270.8 163.88h-2.6l4.2-11.8h2.8l4.2 11.8h-2.7l-.8-2.4h-4.4zm1.5-4.5h3l-1.5-4.7z" transform="translate(-244.9 -125.98)"/><path d="m287 156a2.4 2.4 0 0 0 -2.6-2c-1.2 0-2.9.8-2.9 4.1 0 2.1.8 4 2.9 4a2.51 2.51 0 0 0 2.6-2.2h2.5a4.94 4.94 0 0 1 -5.1 4.4c-3.1 0-5.4-2.1-5.4-6.2s2.4-6.2 5.4-6.2c3.5 0 5 2.4 5.1 4.2h-2.5z" transform="translate(-244.9 -125.98)"/><path d="m54 28.2h-6.2v2.5h5.5v2.1h-5.5v3h6.2v2.1h-8.5v-11.8h8.5z"/><g transform="translate(-244.9 -125.98)"><path d="m257.9 160.58a1.8 1.8 0 1 1 -1.8 1.8 1.79 1.79 0 0 1 1.8-1.8m0 3.4a1.56 1.56 0 0 0 1.5-1.6 1.47 1.47 0 0 0 -1.5-1.5 1.54 1.54 0 0 0 -1.5 1.5 1.56 1.56 0 0 0 1.5 1.6m-.7-2.6h.8c.5 0 .7.2.7.6s-.2.5-.6.6l.6.9h-.4l-.6-.9h-.3v.9h-.3v-2.1zm.3.9h.3c.3 0 .6 0 .6-.3s-.2-.3-.5-.3h-.4z"/><path d="m328.7 153.38a27.38 27.38 0 0 0 -27.4-27.38h-.5v11.8h.5a16 16 0 0 1 16 15.8v10.2h11.3v-10.4z"/><path d="m301.3 152.08h-.5v11.8h5.7v-6.7a5.28 5.28 0 0 0 -5.2-5.1"/><path d="m316.1 153.78a14.77 14.77 0 0 0 -14.8-14.78h-.6v11.8h.5a6.27 6.27 0 0 1 6.3 6.3v6.7h8.5v-10z"/></g></svg>