<svg id="レイヤー_1" data-name="レイヤー 1" xmlns="http://www.w3.org/2000/svg" viewBox="0 0 9 82.1"><path d="M255.7,355.5a4.65,4.65,0,0,0,1.7-3.8c0-1.4-.4-2.5-1.1-2.5s-.9.7-1.2,3.1c-.2,2.1-.6,3.7-2.3,3.7s-2.7-1.6-2.7-4a5.77,5.77,0,0,1,1.7-4.4l1.1,1.2a4,4,0,0,0-1.3,3.3c0,1.5.5,2.2,1.1,2.2s.8-.6,1-2.8c.3-2.4.6-4.2,2.5-4.2s2.8,1.9,2.8,4.3c0,2.1-.8,4.1-2,4.9Z" transform="translate(-250.1 -274.4)"/><path d="M250.1,341.7c0-2.3,1-3.9,2.7-4.6l.8,1.5a2.91,2.91,0,1,0,2,0l.8-1.5c1.7.7,2.7,2.3,2.7,4.6,0,2.9-1.9,5.1-4.4,5.1A4.84,4.84,0,0,1,250.1,341.7Z" transform="translate(-250.1 -274.4)"/><path d="M258.8,334.1v1.8h-8.6v-5.4c0-2,.9-3.3,2.7-3.3a2.48,2.48,0,0,1,2.5,2l3.4-2.2v2l-3.2,2v3.1Zm-4.6-3.5c0-1-.4-1.6-1.2-1.6s-1.2.6-1.2,1.6v3.5h2.4Z" transform="translate(-250.1 -274.4)"/><path d="M254.5,316.2c2.6,0,4.4,2.1,4.4,5.1s-1.9,5.1-4.4,5.1-4.4-2.1-4.4-5.1S252,316.2,254.5,316.2Zm0,8.4c1.7,0,2.9-1.3,2.9-3.3a3,3,0,0,0-2.9-3.3c-1.7,0-2.9,1.3-2.9,3.3S252.8,324.6,254.5,324.6Z" transform="translate(-250.1 -274.4)"/><path d="M250.2,314.9v-1.8h7.1V307h1.5v7.8h-8.6v.1Z" transform="translate(-250.1 -274.4)"/><path d="M250.2,306v-1.8h7.1v-6.1h1.5v7.8h-8.6v.1Z" transform="translate(-250.1 -274.4)"/><path d="M254.8,293.6h-4.5v-1.8h4.4a2.7,2.7,0,0,0,0-5.4h-4.4v-1.8h4.5c2.5,0,4.2,1.4,4.2,4.4C259,292.2,257.3,293.6,254.8,293.6Z" transform="translate(-250.1 -274.4)"/><path d="M258.8,281.3v1.8h-8.6v-5.4c0-2,.9-3.3,2.7-3.3s2.7,1.3,2.7,3.3v3.6Zm-4.6-3.5c0-1-.5-1.6-1.2-1.6s-1.2.6-1.2,1.6v3.5h2.4Z" transform="translate(-250.1 -274.4)"/></svg>