<svg viewBox="0 0 116.1 158.5" xmlns="http://www.w3.org/2000/svg"><g transform="translate(-199.4 -157.2)"><path d="m205.2 217h2.5c1.9 8.2 8 16.2 17 16.2 8.4 0 15-5.9 15-14.5 0-20.3-32.3-14.3-32.3-40.1 0-14.1 10-21.4 23.4-21.4 4.5 0 8.9 1 13.3 1.6l1.7 14h-2.5c-1.2-7.6-6.2-12.1-14.1-12.1-8.3 0-13.1 6-13.1 14 0 20.3 33.6 14.7 33.6 39.8 0 14.2-12.8 22.2-25.6 22.2a39.9 39.9 0 0 1 -16.7-3.7z"/><path d="m199.5 313.5c21.3-18.6 34.9-36.2 34.9-50.6 0-8.7-4-16.9-13.8-16.9-7.4 0-11.6 5.3-15.8 10.4l-2.1-2.2c4.9-7.2 11.6-15.4 23-15.4s18.7 8.9 18.7 20.1c0 18.7-21.2 35.8-33.1 48.1h35.5l2.4-5.7h3.1l-3.2 14.4h-49.7v-2.2z"/><path d="m268.4 217h2.5c1.9 8.2 8 16.2 17 16.2 8.4 0 15-5.9 15-14.5 0-20.3-32.3-14.3-32.3-40.1 0-14.1 10-21.4 23.4-21.4 4.5 0 8.9 1 13.3 1.6l1.7 14h-2.5c-1.2-7.6-6.2-12.1-14.1-12.1-8.3 0-13.1 6-13.1 14 0 20.3 33.6 14.7 33.6 39.8 0 14.2-12.8 22.2-25.6 22.2a39.9 39.9 0 0 1 -16.7-3.7z"/><path d="m262.7 313.5c21.3-18.6 34.9-36.2 34.9-50.6 0-8.7-4-16.9-13.8-16.9-7.4 0-11.6 5.3-15.8 10.4l-2.1-2.2c4.9-7.2 11.6-15.4 23-15.4s18.7 8.9 18.7 20.1c0 18.7-21.2 35.8-33.1 48.1h35.5l2.4-5.7h3.1l-3.2 14.4h-49.7v-2.2z"/></g></svg>