<svg id="レイヤー_1" data-name="レイヤー 1" xmlns="http://www.w3.org/2000/svg" xmlns:xlink="http://www.w3.org/1999/xlink" viewBox="0 0 283.46 49.33"><defs><style>.cls-1{fill:none;}.cls-2{clip-path:url(#clip-path);}</style><clipPath id="clip-path" transform="translate(0 0)"><rect class="cls-1" width="283.46" height="49.33"/></clipPath></defs><g class="cls-2"><path d="M33.44,49.34h-2c5.24-4.49,8-11.56,8-21V0h1.43V28.37c0,9.09-2.59,16.18-7.42,21M26.11,28.89c0,8.91-4.38,13.81-12.34,13.81S1.44,37.64,1.44,28.46V0H0V28.46c0,10,5,15.68,13.77,15.68s13.78-5.56,13.78-15.25V0H26.11ZM94.71,0H93.27V49.34h1.44ZM81.57,33.62V0H80.13V29.36L57.79,0H56ZM52.64,14.14v35.2h1.43V18.4L77.64,49.34h1.8Zm96.19,10.17v.17a28.37,28.37,0,0,1-13.74,24.86h2.65a29.8,29.8,0,0,0,12.52-24.86v-.17A29.57,29.57,0,0,0,138.3,0h-2.57a28.15,28.15,0,0,1,13.1,24.31M106.38,43.44V5.52h11c11.17,0,19,7.8,19,19v.18c0,11.23-7.62,18.78-19,18.78ZM107.81,42h9.57c10.48,0,17.53-7,17.53-17.35v-.18C134.91,14,127.86,7,117.38,7h-9.57ZM191.7,0H190L170.68,30.23l-.11.18V49.34H172V30.83ZM176.76,0h-1.68L164.72,17.12,154.55,0h-1.67l11.83,19.92Zm52,42.18H196.18V30.91h32.55V17.63H196.18V6.78h32.55V0H227.3V5.35H194.74V19.06H227.3V29.47H194.74V43.62H227.3v5.72h1.43Zm10.85,1.26V5.52h11c11.17,0,19,7.8,19,19v.18c0,11.23-7.62,18.78-19,18.78ZM241,42h9.57c10.49,0,17.53-7,17.53-17.35v-.18C268.11,14,261.07,7,250.58,7H241Zm41-17.7v.17A28.39,28.39,0,0,1,268.3,49.34h2.64a29.8,29.8,0,0,0,12.52-24.86v-.17A29.57,29.57,0,0,0,271.5,0h-2.57A28.15,28.15,0,0,1,282,24.31" transform="translate(0 0)"/></g></svg>